HIERARCHY
ROOT Hips
{
	OFFSET 0.000000 71.427986 0.000000
	CHANNELS 6 Xposition Yposition Zposition Xrotation Yrotation Zrotation
	JOINT Pelvis
	{
		OFFSET 0.000000 0.000000 0.000000
		CHANNELS 3 Xrotation Yrotation Zrotation
		JOINT LeftUpLeg
		{
			OFFSET 6.797100 -2.508499 -1.318700
			CHANNELS 3 Xrotation Yrotation Zrotation
			JOINT LeftLeg
			{
				OFFSET 0.069008 -29.241863 0.690200
				CHANNELS 3 Xrotation Yrotation Zrotation
				JOINT LeftFoot
				{
					OFFSET -0.069008 -29.568123 -0.266800
					CHANNELS 3 Xrotation Yrotation Zrotation
					JOINT LeftToeBase
					{
						OFFSET 3.145500 -8.631000 16.059900
						CHANNELS 3 Xrotation Yrotation Zrotation
						End Site
						{
							OFFSET 0.000000 18.501587 0.000000
						}
					}
				}
			}
			JOINT Left_ShortSleeve
			{
				OFFSET 0.265923 -10.480953 1.153800
				CHANNELS 3 Xrotation Yrotation Zrotation
				End Site
				{
					OFFSET 1.725763 19.823879 0.000000
				}
			}
		}
		JOINT RightUpLeg
		{
			OFFSET -6.797100 -2.508499 -1.318700
			CHANNELS 3 Xrotation Yrotation Zrotation
			JOINT RightLeg
			{
				OFFSET -0.082453 -29.241932 0.688000
				CHANNELS 3 Xrotation Yrotation Zrotation
				JOINT RightFoot
				{
					OFFSET 0.082453 -29.568058 -0.264600
					CHANNELS 3 Xrotation Yrotation Zrotation
					JOINT RightToeBase
					{
						OFFSET -3.115300 -8.682800 16.113400
						CHANNELS 3 Xrotation Yrotation Zrotation
						End Site
						{
							OFFSET 0.000000 18.567114 0.000000
						}
					}
				}
			}
			JOINT Right_ShortSleeve
			{
				OFFSET -0.265923 -10.480953 1.153800
				CHANNELS 3 Xrotation Yrotation Zrotation
				End Site
				{
					OFFSET -1.725766 19.823910 0.000000
				}
			}
		}
	}
	JOINT Spine
	{
		OFFSET 0.000000 13.368103 0.470500
		CHANNELS 3 Xrotation Yrotation Zrotation
		JOINT Spine1
		{
			OFFSET 0.147000 13.837402 0.538800
			CHANNELS 3 Xrotation Yrotation Zrotation
			JOINT Spine2
			{
				OFFSET 0.168000 16.242897 -1.435500
				CHANNELS 3 Xrotation Yrotation Zrotation
				JOINT Neck
				{
					OFFSET 0.217200 18.631500 -1.679100
					CHANNELS 3 Xrotation Yrotation Zrotation
					JOINT Head
					{
						OFFSET 0.000000 6.599396 1.385900
						CHANNELS 3 Xrotation Yrotation Zrotation
						JOINT Hat
						{
							OFFSET -0.532200 27.220596 -10.096100
							CHANNELS 3 Xrotation Yrotation Zrotation
							End Site
							{
								OFFSET 0.000000 22.029861 0.000000
							}
						}
						JOINT HairD
						{
							OFFSET -10.777400 17.437393 -1.325900
							CHANNELS 3 Xrotation Yrotation Zrotation
							JOINT HairD1
							{
								OFFSET -3.290299 -11.051193 1.062200
								CHANNELS 3 Xrotation Yrotation Zrotation
								End Site
								{
									OFFSET 0.000000 11.579437 0.000000
								}
							}
						}
						JOINT HairB
						{
							OFFSET -10.777400 17.437393 1.467900
							CHANNELS 3 Xrotation Yrotation Zrotation
							JOINT HairB1
							{
								OFFSET -1.561200 -12.956299 3.590200
								CHANNELS 3 Xrotation Yrotation Zrotation
								End Site
								{
									OFFSET 0.000000 13.534866 0.000000
								}
							}
						}
						JOINT HairA
						{
							OFFSET 9.713100 17.437393 1.467900
							CHANNELS 3 Xrotation Yrotation Zrotation
							JOINT HairA1
							{
								OFFSET 1.561200 -12.956299 3.590200
								CHANNELS 3 Xrotation Yrotation Zrotation
								End Site
								{
									OFFSET 0.000000 13.534866 0.000000
								}
							}
						}
						JOINT HairC
						{
							OFFSET 9.713100 17.437393 -1.325900
							CHANNELS 3 Xrotation Yrotation Zrotation
							JOINT HairC1
							{
								OFFSET 3.290300 -11.051193 1.062200
								CHANNELS 3 Xrotation Yrotation Zrotation
								End Site
								{
									OFFSET 0.000000 11.579437 0.000000
								}
							}
						}
					}
				}
				JOINT LeftShoulder
				{
					OFFSET 5.101800 15.108002 -2.763700
					CHANNELS 3 Xrotation Yrotation Zrotation
					JOINT LeftArm
					{
						OFFSET 9.825497 2.506317 -1.597400
						CHANNELS 3 Xrotation Yrotation Zrotation
						JOINT LeftForeArm
						{
							OFFSET 21.966244 0.000000 0.000000
							CHANNELS 3 Xrotation Yrotation Zrotation
							JOINT LeftHand
							{
								OFFSET 33.879036 0.000000 0.000000
								CHANNELS 3 Xrotation Yrotation Zrotation
								JOINT LeftHandThumb1
								{
									OFFSET 6.715286 -2.359680 3.363841
									CHANNELS 3 Xrotation Yrotation Zrotation
									JOINT LeftHandThumb2
									{
										OFFSET 2.507072 -1.447464 1.447461
										CHANNELS 3 Xrotation Yrotation Zrotation
										JOINT LeftHandThumb3
										{
											OFFSET 2.898338 -1.673355 1.673357
											CHANNELS 3 Xrotation Yrotation Zrotation
											End Site
											{
												OFFSET -0.295959 3.727692 -0.131651
											}
										}
									}
								}
								JOINT LeftHandIndex1
								{
									OFFSET 14.190811 -0.254547 3.840278
									CHANNELS 3 Xrotation Yrotation Zrotation
									JOINT LeftHandIndex2
									{
										OFFSET 3.551727 0.000000 -0.000000
										CHANNELS 3 Xrotation Yrotation Zrotation
										JOINT LeftHandIndex3
										{
											OFFSET 2.894196 0.000000 0.000000
											CHANNELS 3 Xrotation Yrotation Zrotation
											End Site
											{
												OFFSET -1.000603 2.690872 0.366626
											}
										}
									}
								}
								JOINT LeftHandMiddle1
								{
									OFFSET 13.776489 0.000000 0.000000
									CHANNELS 3 Xrotation Yrotation Zrotation
									JOINT LeftHandMiddle2
									{
										OFFSET 3.438232 0.000000 0.000000
										CHANNELS 3 Xrotation Yrotation Zrotation
										JOINT LeftHandMiddle3
										{
											OFFSET 3.691551 0.000000 0.000000
											CHANNELS 3 Xrotation Yrotation Zrotation
											End Site
											{
												OFFSET -1.082298 3.499527 0.457670
											}
										}
									}
								}
								JOINT LeftHandRing1
								{
									OFFSET 13.966164 -0.268127 -3.067488
									CHANNELS 3 Xrotation Yrotation Zrotation
									JOINT LeftHandRing2
									{
										OFFSET 3.162567 0.000000 0.000000
										CHANNELS 3 Xrotation Yrotation Zrotation
										JOINT LeftHandRing3
										{
											OFFSET 3.324348 0.000000 0.000000
											CHANNELS 3 Xrotation Yrotation Zrotation
											End Site
											{
												OFFSET -0.861900 3.184998 0.405154
											}
										}
									}
								}
								JOINT LeftHandPinky1
								{
									OFFSET 13.131393 -0.168503 -5.746925
									CHANNELS 3 Xrotation Yrotation Zrotation
									JOINT LeftHandPinky2
									{
										OFFSET 2.849182 0.000000 0.000000
										CHANNELS 3 Xrotation Yrotation Zrotation
										JOINT LeftHandPinky3
										{
											OFFSET 2.805038 0.000000 0.000000
											CHANNELS 3 Xrotation Yrotation Zrotation
											End Site
											{
												OFFSET -0.882500 2.642609 0.325652
											}
										}
									}
								}
							}
							JOINT Left_Sleeve
							{
								OFFSET 6.592125 -0.646545 0.805568
								CHANNELS 3 Xrotation Yrotation Zrotation
								End Site
								{
									OFFSET -0.000179 20.275787 -0.000000
								}
							}
						}
					}
				}
				JOINT RightShoulder
				{
					OFFSET -5.731700 15.108002 -2.763700
					CHANNELS 3 Xrotation Yrotation Zrotation
					JOINT RightArm
					{
						OFFSET -9.825497 2.506317 -1.597400
						CHANNELS 3 Xrotation Yrotation Zrotation
						JOINT RightForeArm
						{
							OFFSET -21.966242 0.000000 0.000000
							CHANNELS 3 Xrotation Yrotation Zrotation
							JOINT RightHand
							{
								OFFSET -33.879032 0.000000 0.000000
								CHANNELS 3 Xrotation Yrotation Zrotation
								JOINT RightHandThumb1
								{
									OFFSET -6.715286 -2.359680 3.363841
									CHANNELS 3 Xrotation Yrotation Zrotation
									JOINT RightHandThumb2
									{
										OFFSET -2.507072 -1.447464 1.447461
										CHANNELS 3 Xrotation Yrotation Zrotation
										JOINT RightHandThumb3
										{
											OFFSET -2.898338 -1.673355 1.673357
											CHANNELS 3 Xrotation Yrotation Zrotation
											End Site
											{
												OFFSET 0.295959 3.727692 -0.131651
											}
										}
									}
								}
								JOINT RightHandIndex1
								{
									OFFSET -14.190811 -0.254547 3.840278
									CHANNELS 3 Xrotation Yrotation Zrotation
									JOINT RightHandIndex2
									{
										OFFSET -3.551727 0.000000 -0.000000
										CHANNELS 3 Xrotation Yrotation Zrotation
										JOINT RightHandIndex3
										{
											OFFSET -2.894196 0.000000 0.000000
											CHANNELS 3 Xrotation Yrotation Zrotation
											End Site
											{
												OFFSET 1.000603 2.690872 0.366626
											}
										}
									}
								}
								JOINT RightHandMiddle1
								{
									OFFSET -13.776489 0.000000 0.000000
									CHANNELS 3 Xrotation Yrotation Zrotation
									JOINT RightHandMiddle2
									{
										OFFSET -3.438232 0.000000 0.000000
										CHANNELS 3 Xrotation Yrotation Zrotation
										JOINT RightHandMiddle3
										{
											OFFSET -3.691551 0.000000 0.000000
											CHANNELS 3 Xrotation Yrotation Zrotation
											End Site
											{
												OFFSET 1.082298 3.499527 0.457670
											}
										}
									}
								}
								JOINT RightHandRing1
								{
									OFFSET -13.966164 -0.268127 -3.067488
									CHANNELS 3 Xrotation Yrotation Zrotation
									JOINT RightHandRing2
									{
										OFFSET -3.162567 0.000000 0.000000
										CHANNELS 3 Xrotation Yrotation Zrotation
										JOINT RightHandRing3
										{
											OFFSET -3.324348 0.000000 0.000000
											CHANNELS 3 Xrotation Yrotation Zrotation
											End Site
											{
												OFFSET 0.861900 3.184998 0.405154
											}
										}
									}
								}
								JOINT RightHandPinky1
								{
									OFFSET -13.131393 -0.168503 -5.746925
									CHANNELS 3 Xrotation Yrotation Zrotation
									JOINT RightHandPinky2
									{
										OFFSET -2.849182 0.000000 0.000000
										CHANNELS 3 Xrotation Yrotation Zrotation
										JOINT RightHandPinky3
										{
											OFFSET -2.805038 0.000000 0.000000
											CHANNELS 3 Xrotation Yrotation Zrotation
											End Site
											{
												OFFSET 0.882500 2.642609 0.325652
											}
										}
									}
								}
							}
							JOINT Right_Sleeve
							{
								OFFSET -6.592125 -0.646545 0.805568
								CHANNELS 3 Xrotation Yrotation Zrotation
								End Site
								{
									OFFSET 0.000179 20.275787 -0.000000
								}
							}
						}
					}
				}
				JOINT Bind_Right_JacketString
				{
					OFFSET -3.534800 11.969597 7.200700
					CHANNELS 3 Xrotation Yrotation Zrotation
					JOINT Bind_Right_JacketString1
					{
						OFFSET -0.319900 -6.102600 2.794100
						CHANNELS 3 Xrotation Yrotation Zrotation
						End Site
						{
							OFFSET 0.000000 6.719452 0.000000
						}
					}
				}
				JOINT Bind_Left_JacketString
				{
					OFFSET 2.904800 11.969597 7.200700
					CHANNELS 3 Xrotation Yrotation Zrotation
					JOINT Bind_Left_JacketString1
					{
						OFFSET 0.364800 -5.904503 3.186800
						CHANNELS 3 Xrotation Yrotation Zrotation
						End Site
						{
							OFFSET 0.000000 6.719513 0.000000
						}
					}
				}
				JOINT HairE
				{
					OFFSET 5.915200 17.612701 -11.592200
					CHANNELS 3 Xrotation Yrotation Zrotation
					JOINT HairE1
					{
						OFFSET 0.289200 -7.171898 -1.284500
						CHANNELS 3 Xrotation Yrotation Zrotation
						End Site
						{
							OFFSET 0.000000 7.291756 0.000000
						}
					}
				}
				JOINT HairF
				{
					OFFSET -0.864800 17.612701 -11.592200
					CHANNELS 3 Xrotation Yrotation Zrotation
					JOINT HairF1
					{
						OFFSET 0.000000 -14.087097 -2.127501
						CHANNELS 3 Xrotation Yrotation Zrotation
						End Site
						{
							OFFSET 0.000000 14.246841 0.000000
						}
					}
				}
				JOINT HairG
				{
					OFFSET -8.087700 17.612701 -11.592200
					CHANNELS 3 Xrotation Yrotation Zrotation
					JOINT HairG1
					{
						OFFSET -0.293600 -6.081398 -0.910100
						CHANNELS 3 Xrotation Yrotation Zrotation
						End Site
						{
							OFFSET 0.000000 6.156120 0.000000
						}
					}
				}
			}
		}
	}
	JOINT Pouch
	{
		OFFSET 0.000000 4.394501 10.847300
		CHANNELS 3 Xrotation Yrotation Zrotation
		End Site
		{
			OFFSET 0.000000 21.880577 0.000000
		}
	}
	JOINT Bag
	{
		OFFSET -13.229000 4.813004 -0.593300
		CHANNELS 3 Xrotation Yrotation Zrotation
		End Site
		{
			OFFSET 0.000000 21.880577 0.000000
		}
	}
	JOINT OccupyGuyFacialAnim_Joint
	{
		OFFSET 1.000000 -70.206398 -1.655000
		CHANNELS 3 Xrotation Yrotation Zrotation
		End Site
		{
			OFFSET 0.000000 21.880577 0.000000
		}
	}
}
MOTION
Frames: 4
Frame Time: 0.033333
-1.075265 29.530838 -11.172188 44.690986 -2.374708 -1.501306 -0.000001 -0.000000 -0.000000 -71.740523 -20.834874 20.286210 134.929240 -2.904927 -9.507593 25.317433 -2.143455 -11.037026 -0.000000 0.000003 -0.000002 0.000002 -0.000001 -0.000002 -78.118772 9.587257 -6.807991 135.501323 -0.885511 4.858892 16.194474 -3.195649 -2.726737 -0.000001 0.000001 0.000000 0.000003 0.000000 0.000000 31.845508 3.836316 -2.210871 5.872962 1.238610 -0.118289 5.876685 1.165797 -0.166742 -5.367972 -0.769664 2.058775 -21.930093 -2.026455 -1.010823 0.000000 0.000000 0.000000 0.000000 0.000000 0.000000 0.000000 0.000000 0.000000 0.000000 0.000000 0.000000 0.000000 0.000000 0.000000 0.000000 0.000000 0.000000 0.000000 0.000000 0.000000 0.000000 0.000000 0.000000 0.000000 0.000000 0.000000 2.334310 -43.728988 -7.848682 -41.842111 5.246953 -29.364824 0.002290 -88.783122 0.002232 -12.070042 -5.189797 65.152184 -8.791790 -13.613744 7.913771 -3.903912 23.219276 6.911496 0.000001 0.000001 0.000001 4.248945 -6.300997 -13.598787 0.104051 1.100386 -10.803159 -0.000001 -0.000000 -0.000004 -0.791555 0.633148 -18.061301 0.139144 1.270513 -12.498993 0.000001 0.000003 -0.000001 0.189218 3.741572 -20.205516 0.242636 1.670189 -16.531199 -0.000001 0.000001 0.000001 -5.934736 9.601215 -21.133189 0.170302 1.403689 -13.834418 0.000002 -0.000002 -0.000001 0.000000 0.000003 -0.000001 -0.486719 24.062432 16.662752 -52.831735 16.877411 48.814136 0.000114 80.991270 -0.000115 -19.982036 24.713052 -49.660632 -17.698128 6.278688 -1.557646 -4.146179 -32.657634 -9.625261 0.000000 -0.000001 -0.000004 13.509425 5.287389 5.737896 0.126239 -1.078110 13.356616 -0.000000 -0.000001 0.000000 -0.128204 -1.083920 6.876056 0.586323 -2.264083 29.034274 0.000001 -0.000001 0.000001 0.540180 -5.220585 11.122169 0.349668 -1.772193 22.321885 -0.000001 0.000000 0.000001 -12.005182 -16.018231 10.232294 0.137667 -1.125216 13.952076 -0.000001 0.000002 0.000002 0.000001 -0.000001 0.000003 0.000000 -0.000000 -0.000000 0.000000 -0.000000 -0.000000 0.000000 -0.000000 -0.000000 0.000000 -0.000000 -0.000000 0.000000 -0.000000 -0.000000 0.000000 -0.000000 -0.000000 0.000000 -0.000000 -0.000000 0.000000 -0.000000 -0.000000 0.000000 -0.000000 -0.000000 0.000000 -0.000000 -0.000000 -0.000001 -0.000000 -0.000000 -0.000001 -0.000000 -0.000000 -0.000001 -0.000000 -0.000000 
-1.172070 29.432083 -11.309837 44.584620 -2.515316 -1.657444 -0.000000 0.000000 0.000000 -71.714193 -21.365771 20.746256 135.186833 -3.386345 -9.501174 25.326939 -2.158112 -11.079727 0.000001 -0.000000 -0.000001 0.000001 0.000001 0.000000 -78.416418 9.236913 -6.450497 135.839376 -1.170767 4.785779 16.191114 -3.197668 -2.756316 0.000001 0.000000 -0.000000 0.000005 0.000001 0.000000 32.229562 4.009578 -1.980433 5.892111 1.273210 -0.082666 5.896103 1.201700 -0.133361 -5.549749 -0.793406 2.072735 -22.489373 -2.091426 -1.238111 0.000001 -0.000000 -0.000000 0.000001 -0.000000 -0.000000 0.000001 -0.000000 -0.000000 0.000001 -0.000000 0.000000 0.000001 -0.000000 0.000000 0.000001 -0.000000 0.000000 0.000001 -0.000000 0.000000 0.000001 -0.000000 -0.000000 0.000001 -0.000000 -0.000000 3.194843 -44.450045 -6.188918 -43.252204 2.937049 -28.133737 -0.000646 -87.739012 -0.000678 -11.792090 -4.764891 64.224965 -8.787387 -13.621738 7.931728 -3.963788 22.295266 6.972584 -0.000001 -0.000000 -0.000001 4.262915 -6.262541 -11.417343 0.096585 1.060501 -10.406999 0.000002 0.000001 -0.000002 -0.874949 -0.207886 -15.781031 0.123729 1.198856 -11.783400 -0.000001 0.000002 -0.000001 -0.109644 2.713000 -17.608122 0.213814 1.569844 -15.511604 -0.000002 0.000004 0.000001 -7.237062 8.710131 -18.018119 0.143856 1.291585 -12.709670 0.000000 0.000001 -0.000001 -0.000000 0.000001 0.000001 -0.158738 24.469795 15.199106 -54.508789 20.276506 48.048188 0.000056 79.888269 -0.000049 -17.905172 23.897826 -48.250352 -17.703792 6.284032 -1.565375 -4.127844 -31.361739 -9.465822 0.000002 -0.000001 -0.000001 13.495909 5.439703 3.876861 0.126196 -1.077946 13.354511 -0.000001 -0.000001 0.000000 -0.128564 -1.083810 6.887409 0.486255 -2.073729 26.390680 -0.000001 0.000001 -0.000002 0.540162 -5.218713 11.131872 0.278658 -1.588385 19.901161 0.000000 0.000000 -0.000002 -11.713303 -15.770864 10.069869 0.082527 -0.873823 10.791377 -0.000000 0.000004 -0.000001 0.000002 -0.000000 0.000001 0.000000 -0.000000 0.000000 0.000000 -0.000000 -0.000000 0.000000 -0.000000 0.000000 0.000000 -0.000000 0.000000 0.000000 -0.000000 0.000000 0.000000 -0.000000 -0.000000 0.000000 -0.000000 0.000000 0.000000 -0.000000 0.000000 0.000000 -0.000000 0.000000 0.000000 -0.000000 -0.000000 -0.000000 0.000000 0.000000 -0.000000 0.000000 0.000000 -0.000000 0.000000 0.000000 
-1.276444 29.287933 -11.464371 44.769445 -2.614276 -1.870480 0.000000 -0.000000 -0.000000 -72.019407 -22.071418 21.221533 135.513330 -3.967802 -9.493307 25.326960 -2.174985 -11.135528 0.000002 -0.000000 -0.000001 0.000002 0.000000 -0.000000 -78.989697 9.008789 -6.119303 136.246715 -1.314800 4.854444 16.138308 -3.196957 -2.773543 -0.000002 0.000000 0.000000 0.000003 0.000000 -0.000001 32.302543 3.949228 -1.659929 5.865876 1.244054 -0.063115 5.869694 1.177781 -0.112795 -5.761450 -0.795537 2.106716 -23.006589 -1.961874 -1.427096 0.000002 0.000000 0.000000 0.000002 0.000000 0.000000 0.000002 0.000000 0.000000 0.000002 0.000000 0.000000 0.000002 -0.000000 0.000000 0.000002 0.000000 0.000000 0.000002 -0.000000 0.000000 0.000002 0.000000 0.000000 0.000002 0.000000 0.000000 4.139067 -45.188241 -4.444521 -44.644770 1.019249 -26.610914 0.001357 -86.859345 0.001334 -11.689206 -4.537147 63.073969 -8.782477 -13.630320 7.951472 -4.034431 21.268965 7.040776 -0.000001 0.000002 -0.000000 4.272710 -6.233526 -8.993763 0.088593 1.016118 -9.966879 -0.000001 0.000000 0.000002 -0.900753 -1.152303 -13.250228 0.107636 1.119010 -10.988370 -0.000003 0.000002 -0.000003 -0.344385 1.543627 -14.733316 0.183892 1.457766 -14.378815 0.000000 -0.000002 0.000001 -8.601804 7.585325 -14.613873 0.117035 1.166419 -11.460115 0.000000 -0.000001 -0.000001 0.000000 0.000000 0.000003 0.098213 25.090886 13.979060 -55.830144 24.474241 46.782899 0.000016 78.021128 -0.000020 -15.285820 23.051670 -48.040733 -17.706625 6.289063 -1.571850 -4.114241 -30.141707 -9.317454 -0.000000 -0.000003 -0.000003 13.485975 5.575183 2.233184 0.126140 -1.077718 13.351791 0.000001 -0.000000 -0.000001 -0.129008 -1.083449 6.899936 0.394805 -1.878307 23.738976 0.000001 -0.000000 0.000001 0.540137 -5.216508 11.143201 0.219644 -1.414767 17.648418 -0.000000 -0.000000 -0.000001 -11.398250 -15.618730 10.093743 0.043997 -0.639287 7.872745 -0.000000 0.000002 0.000001 -0.000001 -0.000000 -0.000001 0.000000 0.000000 0.000000 0.000000 0.000000 -0.000000 0.000000 0.000000 0.000000 0.000000 0.000000 0.000000 0.000000 0.000000 0.000000 0.000000 0.000000 -0.000000 0.000000 0.000000 0.000000 0.000000 0.000000 0.000000 0.000000 0.000000 0.000000 0.000000 0.000000 -0.000000 0.000000 -0.000000 -0.000000 0.000000 -0.000000 -0.000000 0.000000 -0.000000 -0.000000 
-1.414624 29.094063 -11.642635 45.237022 -2.830068 -2.081411 -0.000001 0.000000 0.000000 -72.534526 -22.877292 21.905328 135.896340 -4.682187 -9.483445 25.293929 -2.212807 -11.198120 -0.000000 0.000000 0.000001 -0.000003 -0.000001 -0.000000 -79.957186 8.722442 -5.633170 136.747627 -1.541885 4.909253 16.080707 -3.197468 -2.802299 0.000001 0.000001 0.000000 0.000004 0.000000 -0.000000 32.138769 3.922797 -1.484433 5.817293 1.225775 -0.038307 5.821173 1.160934 -0.086348 -6.033819 -0.789029 2.120228 -23.495268 -1.868085 -1.535492 -0.000002 0.000000 0.000000 -0.000002 0.000000 0.000000 -0.000002 0.000000 0.000000 -0.000002 0.000000 -0.000000 0.000002 0.000000 -0.000000 -0.000002 0.000000 -0.000000 0.000002 0.000000 -0.000000 -0.000002 0.000000 0.000000 -0.000002 0.000000 0.000000 5.153176 -45.909438 -2.644385 -46.072198 -0.815893 -25.016792 0.000046 -86.067740 0.000136 -11.535892 -4.449942 61.624801 -8.777369 -13.639124 7.971998 -4.113344 20.204890 7.111924 -0.000001 0.000001 -0.000001 4.277787 -6.219070 -6.480195 0.080681 0.970038 -9.510378 -0.000001 0.000002 0.000002 -0.852481 -2.138283 -10.626290 0.092135 1.035987 -10.163784 0.000003 -0.000002 -0.000001 -0.478111 0.309037 -11.760444 0.155194 1.340911 -13.204038 0.000001 -0.000003 -0.000001 -9.915410 6.277294 -11.148600 0.092149 1.036030 -10.164193 -0.000001 0.000000 0.000005 0.000001 0.000003 0.000003 0.380585 25.382223 12.639864 -57.100262 29.449645 45.546693 0.000041 75.164934 -0.000045 -14.462331 23.006203 -46.910617 -17.708321 6.293299 -1.577599 -4.105952 -29.194141 -9.203234 -0.000002 -0.000001 0.000002 13.480206 5.667667 1.129407 0.126098 -1.077486 13.348864 0.000001 0.000000 0.000002 -0.129447 -1.083166 6.913371 0.324066 -1.708507 21.478776 -0.000000 0.000001 0.000001 0.540212 -5.214704 11.155495 0.178866 -1.279603 15.914324 0.000001 -0.000001 -0.000000 -11.092105 -15.621894 10.394827 0.022578 -0.458437 5.636979 -0.000001 -0.000001 0.000002 -0.000000 -0.000000 -0.000002 0.000000 -0.000000 0.000000 -0.000000 0.000000 -0.000000 0.000000 -0.000000 -0.000000 0.000000 -0.000000 -0.000000 0.000000 -0.000000 0.000000 -0.000000 0.000000 -0.000000 0.000000 -0.000000 -0.000000 0.000000 -0.000000 -0.000000 0.000000 -0.000000 0.000000 -0.000000 0.000000 -0.000000 -0.000001 0.000000 0.000000 -0.000001 0.000000 0.000000 -0.000001 0.000000 0.000000 
